<svg id="Layer_1" data-name="Layer 1" xmlns="http://www.w3.org/2000/svg" viewBox="0 0 699.44 699.44"><defs><style>.cls-1{fill:#f48222;}.cls-2{fill:#f38023;}.cls-3{fill:#f27e24;}.cls-4{fill:#f27c25;}.cls-5{fill:#f17a25;}.cls-6{fill:#f17826;}.cls-7{fill:#f07627;}.cls-8{fill:#f07528;}.cls-9{fill:#ef7329;}.cls-10{fill:#ef712a;}.cls-11{fill:#ee6f2b;}.cls-12{fill:#ee6d2b;}.cls-13{fill:#ed6b2c;}.cls-14{fill:#ec692d;}.cls-15{fill:#ec672e;}.cls-16{fill:#eb652f;}.cls-17{fill:#eb6330;}.cls-18{fill:#ea6130;}.cls-19{fill:#ea6031;}.cls-20{fill:#e95e32;}.cls-21{fill:#e95c33;}.cls-22{fill:#e85a34;}.cls-23{fill:#e85835;}.cls-24{fill:#e75636;}.cls-25{fill:#e65436;}.cls-26{fill:#e65237;}.cls-27{fill:#e55038;}.cls-28{fill:#e54e39;}.cls-29{fill:#e44c3a;}.cls-30{fill:#e44b3b;}.cls-31{fill:#e3493c;}.cls-32{fill:#e3473c;}.cls-33{fill:#e2453d;}.cls-34{fill:#e2433e;}.cls-35{fill:#e1413f;}.cls-36{fill:#e14141;}.cls-37{fill:#e04142;}.cls-38{fill:#e04144;}.cls-39{fill:#e04146;}.cls-40{fill:#e04048;}.cls-41{fill:#df4049;}.cls-42{fill:#df404b;}.cls-43{fill:#df404d;}.cls-44{fill:#de404e;}.cls-45{fill:#de4050;}.cls-46{fill:#de4052;}.cls-47{fill:#dd4053;}.cls-48{fill:#dd3f55;}.cls-49{fill:#dd3f57;}.cls-50{fill:#dd3f59;}.cls-51{fill:#dc3f5a;}.cls-52{fill:#dc3f5c;}.cls-53{fill:#dc3f5e;}.cls-54{fill:#db3f5f;}.cls-55{fill:#db3f61;}.cls-56{fill:#db3f63;}.cls-57{fill:#db3e65;}.cls-58{fill:#da3e66;}.cls-59{fill:#da3e68;}.cls-60{fill:#da3e6a;}.cls-61{fill:#d93e6b;}.cls-62{fill:#d93e6d;}.cls-63{fill:#d93e6f;}.cls-64{fill:#d83e70;}.cls-65{fill:#d83d72;}.cls-66{fill:#d83d74;}.cls-67{fill:#d83d76;}.cls-68{fill:#d73d77;}.cls-69{fill:#d73d79;}</style></defs><path class="cls-1" d="M359.5,709.72c-.51,0-1,0-1.53,0-16.59,1-32.13-13.55-46.1-43.08-11.39-24.09-21.48-58.39-28.41-96.58C271,502.16,270,436.66,269.07,373.32q-.09-6.68-.2-13.31v0q.11-6.62.2-13.27C270,283.37,271,217.86,283.46,150c6.93-38.19,17-72.49,28.41-96.58,14-29.53,29.49-44,46.16-43.08,16.61-.94,32.13,13.55,46.1,43.08,11.39,24.09,21.48,58.39,28.41,96.58C445,217.85,446,283.35,446.93,346.69q.09,6.68.2,13.3-.11,6.64-.2,13.3C446,436.64,445,502.15,432.54,570c-6.93,38.19-17,72.49-28.41,96.58C390.59,695.22,375.58,709.72,359.5,709.72Zm-1.53-1c.48,0,1,0,1.43,0,34.61,0,59.91-71.37,72.16-138.88C444,502.05,445,436.58,445.93,373.28c.06-4.45.13-8.87.2-13.29s-.14-8.83-.2-13.28C445,283.41,444,218,431.56,150.16,419.14,81.73,393.32,9.32,358,11.32c-35.35-2-61.17,70.41-73.59,138.84C272,218,271,283.42,270.07,346.73q-.09,6.66-.2,13.27.11,6.63.2,13.3c.95,63.3,1.93,128.76,14.37,196.54C296.86,638.27,322.71,710.72,358,708.68Z" transform="translate(-8.28 -10.28)"/><path class="cls-2" d="M360.77,701.18c-15.4,0-30-13.72-43.52-40.82C305.72,637.17,295.3,604,287.93,566.9c-13.41-66.6-15.35-131.53-17.24-194.33l-.34-11.29V354c0-64.05,0-130.29,11.71-198.44,6.33-37.15,15.77-70.55,26.58-94,13.23-28.75,28.15-43.06,44.43-42.61,16.18-1.35,31.57,12.36,45.68,40.73C410.28,82.82,420.7,116,428.07,153.1c13.41,66.6,15.35,131.54,17.24,194.33l.34,11.3V366c0,64.05,0,130.29-11.71,198.45-6.33,37.15-15.77,70.55-26.58,94-13.23,28.75-28.13,43.09-44.43,42.61Q361.85,701.18,360.77,701.18ZM352.34,19.9c-15.57,0-29.95,14.14-42.79,42-10.78,23.41-20.19,56.72-26.5,93.79C271.33,223.8,271.34,290,271.35,354v7.27l.34,11.27c1.88,62.75,3.83,127.64,17.22,194.17,13.2,66.35,39.55,136.24,74,133.38,15.87.43,30.49-13.68,43.54-42,10.78-23.41,20.19-56.72,26.5-93.78C444.67,496.2,444.66,430,444.65,366v-7.25l-.34-11.28c-1.88-62.75-3.83-127.64-17.22-194.17-12.94-65-38.54-133.46-72-133.46-.68,0-1.35,0-2,.08Z" transform="translate(-8.28 -10.28)"/><path class="cls-3" d="M365,692.81c-14.78,0-29.08-13-42.48-38.6-11.66-22.31-22.39-54.41-30.2-90.39C278,498.42,275.07,434,272.24,371.68l-.43-10.26c-1-64.84-2.13-131.88,8.86-200.38,4.06-25.57,11.65-62.21,24.79-91.57,12.5-27.95,26.86-42.12,42.67-42.12h.07c15.76-1.71,31,11.21,45.25,38.44,11.66,22.31,22.39,54.41,30.2,90.39C438,221.58,440.93,286,443.75,348.3l.44,10.27c1,64.84,2.12,131.89-8.86,200.39-4.06,25.57-11.65,62.21-24.79,91.57-12.5,28-26.86,42.12-42.67,42.12h-.07A25.72,25.72,0,0,1,365,692.81ZM348.19,28.34c-15.44,0-29.49,14-41.82,41.54-13.09,29.26-20.66,65.81-24.71,91.31-11,68.42-9.89,135.42-8.85,200.21l0,1.12.41,9.11c2.82,62.27,5.74,126.65,20.08,192,14,64.3,40.87,131.67,74.43,128h.06c15.43,0,29.49-14,41.82-41.54,13.09-29.26,20.66-65.81,24.71-91.31,11-68.43,9.89-135.43,8.85-200.22l0-1.1-.41-9.15c-2.82-62.26-5.74-126.63-20.08-191.95-14-64.3-40.87-131.7-74.43-128Z" transform="translate(-8.28 -10.28)"/><path class="cls-4" d="M369.24,684.6c-14.21,0-28.15-12.24-41.46-36.46-11.79-21.44-22.81-52.47-31-87.37-15.34-64.23-19.24-128.19-23-190l-.42-6.91c-2-60.28-4.21-128.58,6-197.4,3.65-24.87,10.61-60.52,23-89.17C314.17,50,328,36,343.42,35.62c15.37-2.06,30.45,10.13,44.8,36.24,11.78,21.44,22.81,52.47,31,87.37,15.33,64.22,19.23,128.16,23,190l.42,7c2,60.24,4.21,128.53-6,197.38-3.64,24.87-10.6,60.52-23,89.17C401.83,670,388,684,372.58,684.38A25.09,25.09,0,0,1,369.24,684.6ZM346.65,36.41a24,24,0,0,0-3.15.21c-15.06.36-28.58,14.17-40.24,41-12.4,28.55-19.34,64.12-23,88.93-10.18,68.72-7.95,137-6,197.2l.42,6.89c3.77,61.81,7.66,125.73,23,189.88,14.7,62.27,42.08,127.23,74.8,122.84,15.06-.36,28.58-14.17,40.25-41,12.39-28.55,19.33-64.12,23-88.93,10.19-68.75,8-137,6-197.19l-.42-6.95c-3.77-61.79-7.67-125.69-23-189.83C404.07,99.2,378,36.41,346.65,36.41Z" transform="translate(-8.28 -10.28)"/><path class="cls-5" d="M373.39,676.57c-13.65,0-27.26-11.55-40.46-34.41-11.9-20.6-23.22-50.58-31.87-84.41-16.31-63.09-21.21-126.62-25.95-188.06l-.35-4.61c-1.52-30.49-3-63-2.92-95.74.08-36.13,2.07-68.07,6.07-97.62,3.25-24.2,9.59-58.91,21.35-86.86,11.17-26.53,24.45-40.36,39.48-41.12,14.94-2.39,29.88,9.08,44.33,34.1,11.9,20.6,23.22,50.58,31.87,84.4,16.31,63.09,21.21,126.61,25.94,188l.36,4.65c1.52,30.48,3,63,2.92,95.73-.08,36.13-2.07,68.07-6.07,97.62-3.25,24.2-9.59,58.91-21.35,86.86-11.16,26.53-24.45,40.36-39.48,41.11A24.06,24.06,0,0,1,373.39,676.57ZM342.5,44.45a22.75,22.75,0,0,0-3.66.29c-14.67.74-27.65,14.36-38.65,40.5-11.73,27.86-18.05,62.48-21.29,86.61C274,208.14,270,250.22,275.75,365l.36,4.59c4.73,61.4,9.63,124.88,25.92,187.9,15.41,60.27,43.27,122.86,75.13,117.75,14.67-.74,27.66-14.36,38.66-40.5,11.72-27.86,18-62.48,21.28-86.61C442,511.86,446,469.78,440.25,355l-.36-4.62C435.15,289,430.26,225.5,414,162.49,399.15,104.54,372.84,44.45,342.5,44.45Z" transform="translate(-8.28 -10.28)"/><path class="cls-6" d="M377.48,668.7c-13.12,0-26.39-10.88-39.48-32.44-12-19.77-23.6-48.71-32.65-81.49-17.3-62-23.21-125.14-28.93-186.2l-.21-2.23c-4.1-61-7.45-125.83.33-189.42,2.85-23.54,8.59-57.33,19.7-84.62,10.51-25.82,23.26-39.48,37.9-40.59,14.55-2.69,29.32,8.08,43.86,32,12,19.77,23.6,48.71,32.65,81.49,17.3,62,23.21,125.12,28.93,186.17l.21,2.27c2.34,34.76,4,64.05,4.31,94,.42,35.26-1.1,66.46-4.64,95.4-2.86,23.54-8.59,57.32-19.7,84.62-10.51,25.82-23.26,39.48-37.9,40.59A24,24,0,0,1,377.48,668.7ZM338.41,52.32a22.3,22.3,0,0,0-4.14.38c-14.28,1.08-26.75,14.53-37.11,40-11.06,27.19-16.78,60.88-19.63,84.36-7.77,63.51-4.42,128.3-.32,189.22l.2,2.21c5.72,61,11.63,124.12,28.9,186,16.1,58.3,44.39,118.53,75.42,112.79,14.28-1.08,26.75-14.53,37.11-40,11.06-27.19,16.78-60.89,19.62-84.36,4.26-34.81,7.8-78.08.33-189.22l-.21-2.24c-5.71-61-11.62-124.1-28.9-186C394.3,109.79,367.82,52.32,338.41,52.32Z" transform="translate(-8.28 -10.28)"/><path class="cls-7" d="M381.52,661C368.9,661,356,650.75,343,630.45c-12.1-19-24-46.88-33.4-78.62-18.3-60.92-25.24-123.61-32-184.24-2.35-27.59-4.87-60.13-5.71-92.3-.91-34.41.15-64.92,3.23-93.25,3-27.75,15.75-118.61,54.45-122.53,14.16-3,28.76,7.13,43.38,30,12.1,19,24,46.88,33.4,78.62,18.31,60.94,25.24,123.62,32,184.24h0c5,59.12,9.37,122.14,2.47,185.54-3,27.75-15.75,118.61-54.44,122.53A23.53,23.53,0,0,1,381.52,661ZM334.37,60a21.69,21.69,0,0,0-4.59.48c-25.67,2.6-45.69,48.07-53.61,121.65-3.62,33.2-6.7,77.65,2.48,185.35,6.7,60.57,13.64,123.21,31.91,184,16.76,56.37,45.44,114.32,75.66,108,25.66-2.6,45.68-48.07,53.61-121.65,6.89-63.31,2.55-126.28-2.48-185.34-6.7-60.57-13.63-123.2-31.91-184C389.54,115,362.89,60,334.37,60Z" transform="translate(-8.28 -10.28)"/><path class="cls-8" d="M385.62,653.45c-28.2,0-55.29-52.81-71.81-104.53-19.3-59.84-27.49-123.71-34.72-180.07-5.69-54.88-11.26-118.71-5.28-181.78,2.52-26.92,13.68-115.14,51.38-119.91,30-7.08,59.47,49,77,103.92,19.32,59.88,27.5,123.73,34.72,180.07h0c5.69,54.87,11.26,118.68,5.28,181.77-2.52,26.92-13.68,115.14-51.38,119.91A22.43,22.43,0,0,1,385.62,653.45ZM330.39,67.55a22.06,22.06,0,0,0-5,.59c-25,3.17-43.88,47.66-50.56,119-6,63-.41,126.74,5.27,181.56,7.22,56.31,15.41,120.13,34.68,179.88,17.39,54.46,46.45,110.17,75.87,103.25,25-3.17,43.88-47.66,50.56-119,6-63,.41-126.75-5.27-181.56-7.22-56.29-15.39-120.1-34.68-179.88C384.84,120,358.06,67.55,330.39,67.55Z" transform="translate(-8.28 -10.28)"/><path class="cls-9" d="M389.55,646.08c-27.38,0-54.59-50.42-71.57-100-20.33-58.81-29.83-123.76-37.46-175.95-7-57.22-12.86-118.39-8.07-178.07,2.46-31.12,7.63-58.2,15-78.34,8.68-23.86,19.93-37,33.42-39C350.07,67,379.88,121,398,174c20.32,58.78,29.82,123.75,37.46,176h0c7,57.22,12.85,118.39,8.07,178.06-2.46,31.11-7.63,58.2-15,78.34-8.69,23.86-19.93,37-33.42,39A22.12,22.12,0,0,1,389.55,646.08ZM326.46,74.92a21.52,21.52,0,0,0-5.43.7c-24.34,3.7-42.11,47.24-47.59,116.49-4.77,59.59,1.06,120.7,8.07,177.85,17.11,117,28.37,149.6,37.42,175.76,18,52.59,47.41,106.11,76,98.66,24.34-3.7,42.11-47.24,47.58-116.49,4.78-59.57-1.05-120.69-8.06-177.85C417.36,233,406.11,200.43,397.07,174.28,380.21,125,353.32,74.92,326.46,74.92Z" transform="translate(-8.28 -10.28)"/><path class="cls-10" d="M393.43,638.87c-26.6,0-53.9-48.09-71.32-95.66-19.74-53.37-29.87-109.41-40.17-171.87-13.42-94.38-13-141.14-10.85-174.44,1.93-30.29,6.59-56.7,13.45-76.39,8.11-23.25,18.88-36.22,32-38.53,13-3.71,27.09,4.51,41.88,24.44,12.35,16.64,24.95,41.63,35.47,70.37,19.74,53.37,29.87,109.41,40.17,171.87h0c13.42,94.35,13,141.12,10.85,174.43-1.93,30.29-6.59,56.7-13.45,76.39-8.11,23.25-18.88,36.22-32,38.53A21.63,21.63,0,0,1,393.43,638.87ZM322.59,82.13a21.14,21.14,0,0,0-5.82.82c-23.7,4.18-40.39,46.8-44.68,114-2.16,33.24-2.57,79.94,10.84,174.22,10.29,62.4,20.41,118.39,40.12,171.67,18.58,50.76,48.35,102.14,76.18,94.19,23.7-4.18,40.39-46.8,44.69-114,2.16-33.25,2.56-80-10.85-174.22-10.29-62.4-20.41-118.39-40.12-171.68C375.66,129.91,348.68,82.13,322.59,82.13Z" transform="translate(-8.28 -10.28)"/><path class="cls-11" d="M397.25,631.83c-25.86,0-53.23-45.84-71.05-91.42-20.65-52.27-32.05-109.21-42.84-167.82-8.37-51.52-16.53-112.1-13.63-170.89,1.42-29.5,5.56-55.26,12-74.52,7.55-22.66,17.85-35.46,30.62-38,27.66-8.61,58.17,41.07,77.47,90.44,20.66,52.3,32.05,109.22,42.84,167.82h0c8.37,51.51,16.53,112.1,13.63,170.88-1.42,29.5-5.56,55.26-12,74.52-7.55,22.66-17.85,35.46-30.62,38A21.52,21.52,0,0,1,397.25,631.83ZM318.78,89.18a20.64,20.64,0,0,0-6.2.94c-23.08,4.65-38.71,46.37-41.86,111.63C267.83,260.45,276,321,284.34,372.42,295.13,431,306.52,487.85,327.13,540c19.14,49,49.23,98.26,76.29,89.84,23.08-4.65,38.71-46.37,41.86-111.63C448.17,459.56,440,399,431.66,347.58,420.88,289,409.49,232.17,388.87,180,371.18,134.72,344.13,89.18,318.78,89.18Z" transform="translate(-8.28 -10.28)"/><path class="cls-12" d="M401,624.94c-25.16,0-52.57-43.66-70.77-87.29-21.58-51.24-33.83-106.73-45.48-163.82C268.3,284,267.35,237.16,268.36,206.42c.91-28.72,4.56-53.87,10.54-72.71,7-22.1,16.86-34.73,29.28-37.54,26.9-9,57.71,38.58,77.56,86.18,21.59,51.24,33.84,106.73,45.49,163.82h0c16.47,89.85,17.42,136.65,16.41,167.4-.91,28.72-4.56,53.87-10.53,72.71-7,22.1-16.87,34.73-29.29,37.54A21.29,21.29,0,0,1,401,624.94ZM315,96.06a20.62,20.62,0,0,0-6.56,1.07c-22.48,5.09-37.07,46-39.09,109.33-1,30.68-.06,77.42,16.39,167.18,11.64,57,23.88,112.47,45.43,163.62,19.67,47.19,50.07,94.45,76.37,85.61,22.48-5.08,37.07-46,39.09-109.33,1-30.69.06-77.43-16.39-167.18-11.64-57-23.88-112.47-45.43-163.62C366.76,139.43,339.67,96.06,315,96.06Z" transform="translate(-8.28 -10.28)"/><path class="cls-13" d="M404.75,618.22c-24.5,0-51.94-41.55-70.48-83.3-22.49-50.14-36.09-106.46-48.1-159.85-9.42-46-20.1-106.15-19.18-164,.42-28,3.57-52.54,9.12-71,6.49-21.56,15.9-34,28-37.06,26.13-9.47,57.26,36.16,77.63,82,22.51,50.16,36.11,106.47,48.11,159.85h0c9.42,45.95,20.1,106.12,19.18,164-.42,28-3.57,52.54-9.12,71-6.48,21.56-15.9,34-28,37.06A20.9,20.9,0,0,1,404.75,618.22ZM311.29,102.78a19.94,19.94,0,0,0-6.91,1.22c-21.89,5.49-35.48,45.52-36.39,107.09-.92,57.74,9.75,117.85,19.16,163.77,12,53.33,25.58,109.6,48,159.66C355.38,580,386.05,625.25,411.62,616c21.89-5.49,35.48-45.52,36.39-107.1.92-57.75-9.75-117.85-19.16-163.76-12-53.32-25.57-109.58-48-159.66C362.41,144.06,335.3,102.78,311.29,102.78Z" transform="translate(-8.28 -10.28)"/><path class="cls-14" d="M408.42,611.65c-23.87,0-51.3-39.51-70.16-79.41C314.84,483.16,299.81,426,287.57,376.31c-15.11-66.53-21.88-116.07-21.95-160.64-.08-27.28,2.59-51.25,7.72-69.32,6-21,15-33.36,26.71-36.59,25.43-9.87,56.81,33.82,77.69,78,23.42,49.08,38.45,106.22,50.69,155.93h0c15.11,66.5,21.88,116.05,21.95,160.63.08,27.29-2.59,51.26-7.72,69.32-6,21.05-15,33.36-26.71,36.59A20.55,20.55,0,0,1,408.42,611.65Zm-100.8-502.3a20,20,0,0,0-7.26,1.36c-21.32,5.87-33.92,45.1-33.74,105,.07,44.5,6.83,94,21.92,160.42,12.23,49.65,27.24,106.74,50.62,155.73,20.69,43.77,51.64,87.11,76.48,77.48,21.32-5.87,33.92-45.1,33.74-104.95-.07-44.52-6.83-94-21.92-160.42-12.23-49.66-27.24-106.74-50.62-155.73C358.12,148.6,331,109.35,307.62,109.35Z" transform="translate(-8.28 -10.28)"/><path class="cls-15" d="M411.94,605.26c-9.34,0-19.86-6-31.37-18C367.76,574,354.49,554,342.21,529.59,317.87,481.62,302,426,289,377.55c-16-63.95-23.85-113.95-24.72-157.36-.56-26.6,1.63-50,6.35-67.72,5.48-20.56,14.05-32.72,25.48-36.15,11.18-4.62,24.43.88,39.36,16.37C348.24,146,361.51,166,373.79,190.41c24.34,48,40.25,103.64,53.25,152h0c16,63.94,23.85,113.93,24.72,157.35.56,26.6-1.63,50-6.35,67.72-5.48,20.56-14.05,32.72-25.48,36.15A20.81,20.81,0,0,1,411.94,605.26ZM304,115.76a19.55,19.55,0,0,0-7.6,1.51C275.63,123.5,264,162,265.24,220.17c.86,43.33,8.71,93.26,24.69,157.13,13,48.35,28.88,104,53.17,151.83,21.16,42.13,52.37,83.59,76.5,73.61,20.77-6.24,32.4-44.7,31.16-102.91-.86-43.33-8.71-93.27-24.68-157.12-13-48.35-28.88-103.95-53.18-151.85C353.9,153,326.8,115.76,304,115.76Z" transform="translate(-8.28 -10.28)"/><path class="cls-16" d="M415.63,599c-22.71,0-50.09-35.62-69.51-72-24-44.63-41-97.59-55.78-148.19-17.09-62.36-25.82-111.33-27.48-154.13-1.05-25.94.68-48.83,5-66.2,5-20.08,13.16-32.09,24.27-35.71,24-10.57,55.91,29.37,77.74,70.29,24.06,44.64,41,97.6,55.79,148.19h0c17.09,62.35,25.82,111.33,27.48,154.13,1.05,25.94-.68,48.83-5,66.19-5,20.09-13.16,32.1-24.27,35.71A20.25,20.25,0,0,1,415.63,599ZM300.42,122a19.43,19.43,0,0,0-7.93,1.66c-20.24,6.58-30.92,44.3-28.63,100.93,1.66,42.72,10.38,91.62,27.44,153.9C306.05,429,323,482,347,526.5c21.61,40.52,53.06,80.15,76.5,69.82,20.24-6.58,30.92-44.3,28.63-100.93-1.66-42.72-10.38-91.63-27.44-153.9C410,291,393,238.06,369,193.5,349.73,157.41,322.67,122,300.42,122Z" transform="translate(-8.28 -10.28)"/><path class="cls-17" d="M419.17,592.87c-22.18,0-49.5-33.77-69.15-68.47-24.91-43.56-42.74-95.14-58.3-144.38-18.17-60.82-27.78-108.79-30.25-151-1.53-25.31-.26-47.7,3.66-64.73,4.53-19.64,12.3-31.51,23.11-35.3,23.34-10.9,55.47,27.25,77.75,66.58,24.92,43.58,42.74,95.15,58.29,144.38h0c18.17,60.79,27.78,108.76,30.25,151,1.53,25.31.26,47.7-3.66,64.73-4.53,19.64-12.3,31.51-23.11,35.3A20.15,20.15,0,0,1,419.17,592.87ZM296.89,128.13a19.23,19.23,0,0,0-8.27,1.82c-19.72,6.9-29.48,43.92-26.16,99,2.47,42.1,12.07,90,30.22,150.73,15.53,49.19,33.34,100.7,58.21,144.18,22.05,39,53.74,76.78,76.49,66.15,19.72-6.9,29.48-43.92,26.15-99-2.46-42.12-12.06-90-30.21-150.73C407.79,291.1,390,239.59,365.12,196.1,345.62,161.68,318.62,128.13,296.89,128.13Z" transform="translate(-8.28 -10.28)"/><path class="cls-18" d="M422.57,586.94c-8.38,0-18.05-4.77-28.85-14.27-12.93-11.37-26.7-28.94-39.85-50.81-25.77-42.48-44.44-92.69-60.78-140.61-19.25-59.32-29.74-106.3-33-147.86-4.39-54.14,4.7-90.87,24.31-98.23,10.21-5,23-1,37.9,12.17,12.93,11.37,26.71,28.94,39.85,50.81,25.77,42.49,44.44,92.69,60.78,140.61h0c19.25,59.32,29.74,106.3,33,147.85,4.39,54.14-4.7,90.87-24.31,98.23A20.12,20.12,0,0,1,422.57,586.94ZM293.39,134.09a19.16,19.16,0,0,0-8.61,2c-19.21,7.22-28.06,43.57-23.72,97.24,3.28,41.48,13.76,88.39,33,147.63,16.32,47.86,35,98,60.69,140.4,22.48,37.42,54.39,73.51,76.49,62.59,19.21-7.22,28.06-43.57,23.72-97.24-3.28-41.46-13.76-88.37-33-147.62-16.32-47.86-35-98-60.69-140.41C341.57,165.87,314.63,134.09,293.39,134.09Z" transform="translate(-8.28 -10.28)"/><path class="cls-19" d="M426.14,581.09c-21.23,0-48.38-30.26-68.43-61.73-26.7-41.49-46.95-92.48-63.25-136.88-20-57.08-31.76-104.44-35.8-144.8-5.41-52.77,2.78-88.86,21.9-96.53,22-11.49,54.6,23.19,77.73,59.49,26.69,41.48,46.95,92.47,63.25,136.88h0c20,57.09,31.76,104.45,35.8,144.8,5.41,52.77-2.78,88.85-21.9,96.53A19.82,19.82,0,0,1,426.14,581.09ZM289.93,139.91a19,19,0,0,0-8.95,2.15c-18.73,7.52-26.68,43.22-21.33,95.52,4,40.28,15.73,87.57,35.75,144.56,16.28,44.35,36.51,95.27,63.15,136.68,22.89,35.93,55,70.32,76.47,59.12,18.73-7.52,26.68-43.22,21.33-95.52-4-40.27-15.73-87.56-35.75-144.57-16.28-44.35-36.52-95.27-63.15-136.67C337.56,170,310.72,139.91,289.93,139.91Z" transform="translate(-8.28 -10.28)"/><path class="cls-20" d="M429.6,575.38c-7.88,0-17.15-4-27.33-12-13-10.17-27.08-26.24-40.76-46.49-27.54-40.38-48.66-90-65.68-133.18-21.11-55.7-33.74-102.08-38.59-141.79-6.42-51.46.88-86.94,19.52-94.9,9.47-5.21,22.27-1.9,37,9.6,13,10.17,27.08,26.24,40.76,46.49,27.54,40.38,48.66,90,65.68,133.18h0c21.1,55.7,33.73,102.08,38.59,141.79,6.41,51.46-.89,86.94-19.53,94.9A19.64,19.64,0,0,1,429.6,575.38ZM286.42,145.63a18.84,18.84,0,0,0-9.22,2.28c-18.25,7.8-25.33,42.89-19,93.89,4.85,39.63,17.45,85.93,38.53,141.55,17,43.14,38.09,92.67,65.58,133C376,536.5,390,552.49,402.88,562.59c14.37,11.24,26.79,14.52,35.92,9.5,18.25-7.8,25.33-42.89,19-93.89-4.85-39.63-17.45-85.93-38.53-141.55-17-43.14-38.09-92.68-65.58-133C340,183.5,326,167.51,313.12,157.41,303.13,149.59,294.08,145.63,286.42,145.63Z" transform="translate(-8.28 -10.28)"/><path class="cls-21" d="M433,569.85c-7.61,0-16.59-3.69-26.49-11-13-9.58-27.26-24.93-41.19-44.39-28.55-39.49-51.4-90-68.12-129.53-22.17-54.35-35.7-99.77-41.38-138.83-7.42-50.21-1-85.11,17.19-93.36,9.19-5.32,21.83-2.43,36.52,8.39,13,9.58,27.26,24.93,41.19,44.39,28.54,39.48,51.39,90,68.12,129.53h0c22.17,54.35,35.7,99.76,41.38,138.83,7.42,50.21,1,85.11-17.19,93.36A19.66,19.66,0,0,1,433,569.85ZM283.12,151.11a18.91,18.91,0,0,0-9.67,2.53c-17.8,8.07-24,42.58-16.66,92.32,5.67,39,19.18,84.32,41.32,138.6,16.69,39.51,39.51,89.91,68,129.32,23.67,33.06,56.18,64.21,76.44,52.48,17.8-8.07,24-42.58,16.66-92.32-5.66-39-19.18-84.33-41.32-138.6-16.7-39.52-39.52-89.93-68-129.32C329.7,177.92,303.08,151.11,283.12,151.11Z" transform="translate(-8.28 -10.28)"/><path class="cls-22" d="M436.32,564.45c-7.35,0-16-3.36-25.65-10-13-9-27.43-23.67-41.61-42.37-29.37-38.32-53.12-87.41-70.52-125.9-23.24-53.05-37.69-97.5-44.18-135.92-8.43-49-2.87-83.37,14.88-91.9,8.91-5.43,21.41-2.94,36.09,7.21,13,9,27.43,23.67,41.61,42.36,29.38,38.35,53.12,87.43,70.52,125.91h0c23.24,53,37.69,97.5,44.18,135.92,8.43,49,2.87,83.37-14.88,91.9A19.71,19.71,0,0,1,436.32,564.45ZM279.7,156.56a18.84,18.84,0,0,0-10,2.67c-17.36,8.34-22.71,42.3-14.37,90.85,6.48,38.34,20.91,82.72,44.11,135.69,17.38,38.43,41.09,87.45,70.4,125.7,14.13,18.61,28.44,33.19,41.39,42.15,14.33,9.91,26.45,12.38,35.05,7.15,17.36-8.34,22.71-42.3,14.37-90.85-6.49-38.34-20.91-82.72-44.11-135.69-17.38-38.42-41.08-87.43-70.4-125.7-14.13-18.61-28.44-33.19-41.39-42.15C295.32,159.86,286.84,156.56,279.7,156.56Z" transform="translate(-8.28 -10.28)"/><path class="cls-23" d="M439.63,559.19c-7.09,0-15.47-3.05-24.8-9.09-13.06-8.47-27.6-22.43-42-40.38-30.2-37.18-54.83-84.9-72.91-122.32-24.3-51.76-39.67-95.28-47-133-9.42-47.89-4.71-81.73,12.6-90.52,8.66-5.53,21-3.44,35.68,6.07,13.06,8.47,27.6,22.43,42,40.38,30.21,37.19,54.83,84.9,72.91,122.32h0c24.3,51.77,39.67,95.29,47,133,9.43,47.89,4.72,81.73-12.59,90.52A19.81,19.81,0,0,1,439.63,559.19ZM276.39,161.82A18.89,18.89,0,0,0,266,164.7c-16.94,8.6-21.45,42-12.11,89.46,7.3,37.69,22.65,81.13,46.91,132.81,18.06,37.37,42.65,85,72.79,122.12C388,527,402.4,540.85,415.38,549.26c14.31,9.28,26.29,11.37,34.63,6,16.94-8.6,21.45-42,12.11-89.46-7.3-37.68-22.65-81.12-46.91-132.81-18-37.36-42.65-85-72.79-122.12-14.37-17.87-28.82-31.76-41.8-40.17C291.48,164.81,283.28,161.82,276.39,161.82Z" transform="translate(-8.28 -10.28)"/><path class="cls-24" d="M443,554.08c-19.35,0-45.78-22.47-66.43-46.68-31.37-36.43-58-85.23-75.29-118.77-25.36-50.5-41.66-93.09-49.81-130.22-10.43-46.81-6.56-80.16,10.34-89.22,19.09-12.79,52.67,14,77.72,43.41,31.37,36.43,58,85.23,75.29,118.77h0c25.37,50.51,41.66,93.1,49.81,130.22,10.43,46.81,6.57,80.16-10.34,89.22A19.83,19.83,0,0,1,443,554.08ZM273.11,167a19.07,19.07,0,0,0-10.84,3.1c-16.52,8.85-20.2,41.8-9.87,88.15,8.13,37,24.4,79.56,49.72,130,17.27,33.49,43.86,82.22,75.16,118.57,14.61,17.14,29.21,30.36,42.21,38.24,14.3,8.67,26.14,10.39,34.24,5,16.52-8.85,20.2-41.8,9.87-88.15-8.13-37-24.39-79.55-49.72-130-17.27-33.49-43.85-82.21-75.16-118.57-14.61-17.14-29.21-30.36-42.21-38.24C287.67,169.65,279.77,167,273.11,167Z" transform="translate(-8.28 -10.28)"/><path class="cls-25" d="M446.22,549.08c-19.05,0-45.3-21.08-66-44-32.2-35.26-59.74-82.67-77.65-115.26-26.45-49.27-43.67-90.95-52.65-127.43-11.44-45.78-8.41-78.68,8.1-88,18.56-13,52.33,12.34,77.74,40.44,32.18,35.24,59.73,82.66,77.65,115.26h0c26.44,49.27,43.66,90.95,52.64,127.43,11.44,45.78,8.41,78.68-8.1,88A20,20,0,0,1,446.22,549.08ZM269.86,172a19.18,19.18,0,0,0-11.3,3.33c-16.13,9.11-19,41.59-7.66,86.91,9,36.39,26.15,78,52.55,127.19,17.89,32.55,45.39,79.88,77.52,115.06,14.85,16.43,29.59,29,42.61,36.37,14.3,8.08,26,9.43,33.86,3.91,16.14-9.11,19-41.59,7.66-86.91-9-36.39-26.15-78-52.55-127.2-17.9-32.55-45.41-79.9-77.52-115-14.85-16.43-29.59-29-42.61-36.37C283.89,174.37,276.28,172,269.86,172Z" transform="translate(-8.28 -10.28)"/><path class="cls-26" d="M449.38,544.18c-6.35,0-13.83-2.2-22.19-6.59-13.14-6.91-28.1-18.92-43.27-34.73-25.12-25.92-50.54-61.44-80-111.77-27.14-47.4-45.81-89.35-55.49-124.67-12.45-44.81-10.26-77.28,5.87-86.85,7.92-5.83,19.87-4.86,34.52,2.84,13.14,6.91,28.1,18.92,43.27,34.73,25.12,25.92,50.54,61.44,80,111.77h0c27.14,47.41,45.81,89.35,55.49,124.67,12.45,44.81,10.25,77.28-5.87,86.85A20.3,20.3,0,0,1,449.38,544.18ZM266.64,176.82a19.42,19.42,0,0,0-11.8,3.58c-15.75,9.36-17.78,41.41-5.46,85.75,9.66,35.25,28.3,77.11,55.4,124.44,29.42,50.26,54.8,85.71,79.86,111.58,15.09,15.73,30,27.67,43,34.53,14.29,7.51,25.87,8.51,33.5,2.9,15.75-9.36,17.78-41.41,5.45-85.76-9.65-35.23-28.29-77.1-55.39-124.43h0c-29.42-50.26-54.79-85.71-79.86-111.58-15.09-15.73-30-27.67-43-34.53C280.14,179,272.83,176.82,266.64,176.82Z" transform="translate(-8.28 -10.28)"/><path class="cls-27" d="M452.57,539.43c-6.11,0-13.27-1.95-21.29-5.85-13.17-6.42-28.27-17.8-43.68-32.93-25.73-25-51.9-59.44-82.35-108.33C277,346.09,257.4,305.06,246.89,270.38c-13.47-43.89-12.1-75.95,3.65-85.78,7.69-5.93,19.52-5.31,34.17,1.82,13.18,6.42,28.28,17.8,43.69,32.93,25.73,25,51.9,59.44,82.35,108.33h0c28.21,46.24,47.84,87.26,58.34,122,13.48,43.88,12.11,75.94-3.64,85.77A20.55,20.55,0,0,1,452.57,539.43ZM263.41,181.54a19.61,19.61,0,0,0-12.3,3.88c-15.39,9.6-16.59,41.24-3.26,84.66,10.49,34.61,30.08,75.56,58.25,121.72,30.4,48.81,56.53,83.17,82.2,108.13,25.83,25.37,59.52,47.8,76.59,34.65,15.39-9.6,16.59-41.24,3.26-84.66-10.49-34.61-30.08-75.56-58.25-121.72-30.4-48.81-56.52-83.17-82.2-108.13C307.13,199.87,281.58,181.54,263.41,181.54Z" transform="translate(-8.28 -10.28)"/><path class="cls-28" d="M455.62,534.86c-15.91,0-38.69-12.67-64.35-36.4-26-23.78-53.69-58.1-84.69-104.91-29.29-45.08-49.89-85.2-61.23-119.25-14.5-43-14-74.69,1.43-84.78,14.48-11.67,43.64.29,78,32,26,23.78,53.69,58.1,84.69,104.92h0c29.28,45.08,49.88,85.2,61.22,119.25,14.5,43,14,74.69-1.43,84.78A21.08,21.08,0,0,1,455.62,534.86ZM260.22,186.17a19.85,19.85,0,0,0-12.85,4.16c-15,9.85-15.42,41.11-1.07,83.65,11.31,34,31.87,74,61.11,119,31,46.74,58.61,81,84.54,104.73C418.13,521.94,452,543,468.63,529.67c15-9.85,15.42-41.11,1.07-83.65-11.31-34-31.87-74-61.11-119-31-46.75-58.61-81-84.54-104.73C303.5,203.27,278.19,186.17,260.22,186.17Z" transform="translate(-8.28 -10.28)"/><path class="cls-29" d="M458.76,530.34c-15.74,0-38.28-11.8-63.83-34-26.58-22.88-55.05-56.09-87-101.53C277.53,350.84,256,311.62,243.79,278.2,228.24,236,228,204.7,243,194.35c14.08-11.87,43.28-.92,78.07,29.33,26.57,22.88,55,56.09,87,101.54h0c30.37,43.94,51.94,83.16,64.11,116.58,15.55,42.16,15.84,73.5.79,83.85C469.26,528.8,464.46,530.34,458.76,530.34ZM257.06,190.77c-5.42,0-10,1.44-13.45,4.38-14.7,10.09-14.26,41,1.11,82.7,12.15,33.35,33.68,72.5,64,116.36,31.93,45.37,60.34,78.52,86.86,101.35,33.88,29.46,63.31,40.68,76.81,29.29,14.7-10.1,14.26-41-1.11-82.7-12.15-33.35-33.68-72.49-64-116.36-31.94-45.37-60.35-78.52-86.87-101.35C295.29,202.59,272.61,190.77,257.06,190.77Z" transform="translate(-8.28 -10.28)"/><path class="cls-30" d="M461.88,525.94c-15.6,0-37.89-11-63.29-31.74-27.18-22-56.42-54.11-89.36-98.18-31.47-42.83-54-81.16-67-113.95-16.61-41.35-17.73-72.37-3-83C252.89,187,282.15,197,317.41,225.8c27.18,22,56.41,54.1,89.36,98.18h0c31.47,42.81,54,81.15,67,113.94,16.6,41.35,17.73,72.37,3,83C473,524.29,467.93,525.94,461.88,525.94ZM254,195.18c-5.77,0-10.55,1.54-14.13,4.69-14.37,10.35-13.11,40.93,3.31,81.83,13,32.71,35.49,71,66.9,113.72,32.9,44,62.07,76.07,89.19,98,34.33,28.06,63.82,38.29,77,26.71,14.36-10.35,13.11-40.93-3.31-81.83-13-32.72-35.49-71-66.9-113.72-32.9-44-62.08-76.07-89.19-98C291.8,206.16,269.38,195.18,254,195.18Z" transform="translate(-8.28 -10.28)"/><path class="cls-31" d="M465,521.65c-15.47,0-37.5-10.19-62.72-29.54C374.48,471,344.48,440,310.55,397.25c-32.57-41.71-56.1-79.16-70-111.33-17.68-40.59-19.63-71.31-5.23-82.18,13.33-12.29,42.66-3.28,78.4,24.15C341.53,249,371.52,280,405.45,322.75h0c32.57,41.71,56.11,79.17,70,111.33,17.68,40.59,19.63,71.31,5.23,82.18C476.72,519.88,471.41,521.65,465,521.65ZM250.89,199.47c-6.17,0-11.22,1.65-14.89,5-14.05,10.6-12,40.88,5.51,81,13.82,32.09,37.31,69.47,69.82,111.11,33.88,42.68,63.82,73.65,91.52,94.69,34.8,26.7,64.36,36,77.15,24.17,14.05-10.6,12-40.88-5.51-81-13.82-32.09-37.31-69.47-69.82-111.11-33.88-42.68-63.81-73.65-91.52-94.69C288.34,209.65,266.19,199.47,250.89,199.47Z" transform="translate(-8.28 -10.28)"/><path class="cls-32" d="M468,517.47c-15.34,0-37.1-9.42-62.11-27.42-28.36-20.18-59.11-50.14-94-91.57-33.68-40.6-58.21-77.19-72.91-108.73-18.77-39.85-21.57-70.3-7.47-81.44,13-12.51,42.38-4.43,78.62,21.64,28.35,20.18,59.11,50.13,94,91.57h0c33.68,40.6,58.2,77.18,72.91,108.73,18.78,39.85,21.57,70.3,7.47,81.44C480.49,515.57,474.89,517.47,468,517.47ZM248,203.58c-6.67,0-12,1.84-15.8,5.48-13.75,10.87-10.85,40.86,7.72,80.26,14.66,31.47,39.14,68,72.76,108.52,34.85,41.37,65.55,71.26,93.84,91.4C423,501.15,438.78,509.6,452,513.68c14.36,4.42,25.37,3.47,31.81-2.74,13.75-10.87,10.85-40.86-7.72-80.26-14.67-31.48-39.15-68-72.76-108.52-34.86-41.37-65.55-71.27-93.84-91.4C293,218.85,277.22,210.4,264,206.32A55.12,55.12,0,0,0,248,203.58Z" transform="translate(-8.28 -10.28)"/><path class="cls-33" d="M471,513.39c-15.24,0-36.71-8.69-61.47-25.36-28.93-19.28-60.45-48.17-96.36-88.31-34.8-39.52-60.33-75.24-75.87-106.16-19.89-39.15-23.53-69.34-9.73-80.76,12.62-12.73,42.13-5.58,78.88,19.17,28.94,19.29,60.46,48.17,96.36,88.31h0c34.8,39.52,60.32,75.23,75.87,106.16,19.89,39.15,23.53,69.34,9.73,80.76C484.3,511.35,478.39,513.39,471,513.39ZM245,207.65c-7.16,0-12.82,2-16.7,5.89-13.45,11.13-9.72,40.87,10,79.57,15.5,30.85,41,66.49,75.72,105.94,35.84,40.08,67.3,68.91,96.17,88.15,16.81,11.32,32.72,19.23,46,22.88,14.41,4,25.34,2.71,31.62-3.62,13.45-11.13,9.71-40.87-10-79.57-15.5-30.85-41-66.5-75.72-105.94-35.84-40.08-67.3-68.91-96.17-88.15-16.81-11.32-32.72-19.23-46-22.88A57,57,0,0,0,245,207.65Z" transform="translate(-8.28 -10.28)"/><path class="cls-34" d="M474,509.42c-15.13,0-36.3-8-60.77-23.39-29.53-18.38-61.81-46.21-98.7-85.08-35.94-38.43-62.47-73.29-78.86-103.59-21-38.47-25.53-68.43-12-80.14,12.29-13,41.91-6.71,79.18,16.75,29.53,18.38,61.81,46.21,98.7,85.08h0c35.94,38.43,62.47,73.29,78.86,103.59,21,38.47,25.53,68.43,12,80.14C488.16,507.23,481.89,509.42,474,509.42ZM242,211.62c-7.7,0-13.71,2.12-17.69,6.32-13.17,11.41-8.59,40.91,12.2,78.94,16.36,30.23,42.84,65,78.72,103.39,36.82,38.8,69,66.57,98.5,84.91,17.07,10.75,33.15,18.13,46.51,21.37,14.47,3.5,25.34,1.95,31.45-4.49,13.17-11.41,8.59-40.91-12.21-78.94-16.35-30.23-42.83-65-78.71-103.39-36.82-38.8-69-66.57-98.5-84.91-17.07-10.75-33.15-18.13-46.51-21.37A59,59,0,0,0,242,211.62Z" transform="translate(-8.28 -10.28)"/><path class="cls-35" d="M476.89,505.55c-15,0-35.89-7.31-60-21.49-29.69-17.24-63.69-44.78-101.05-81.87-37.08-37.35-64.63-71.35-81.87-101.05-22.21-37.82-27.56-67.56-14.33-79.56,12-13.2,41.71-7.85,79.53,14.36,29.69,17.24,63.69,44.79,101.05,81.87h0c37.08,37.36,64.63,71.35,81.88,101.05,22.2,37.82,27.55,67.56,14.32,79.56C492.06,503.2,485.41,505.55,476.89,505.55ZM239.16,215.42c-8.25,0-14.67,2.26-18.84,6.86-12.9,11.7-7.47,41,14.48,78.36,17.21,29.62,44.7,63.55,81.72,100.85,37.3,37,71.23,64.51,100.84,81.71,37.38,21.95,66.66,27.38,78.32,14.52,12.9-11.7,7.47-41-14.48-78.36-17.2-29.62-44.7-63.55-81.72-100.85h0c-37.3-37-71.23-64.52-100.85-81.72C274.63,222.7,254,215.42,239.16,215.42Z" transform="translate(-8.28 -10.28)"/><path class="cls-36" d="M480,502.07c-15,0-35.53-6.68-59.36-19.71-30.3-16.39-65.16-42.92-103.59-78.86-38.87-36.89-66.7-69.17-85.08-98.7-23.46-37.27-29.71-66.89-16.72-79.22,11.68-13.47,41.63-9,80.11,12.06C325.66,254,360.52,280.56,399,316.5h0c38.87,36.89,66.7,69.17,85.08,98.7,23.46,37.27,29.71,66.89,16.72,79.22C496.3,499.55,489.21,502.07,480,502.07ZM236,218.89c-8.92,0-15.78,2.44-20.06,7.38-6.48,6.15-8,17-4.53,31.49,3.23,13.36,10.62,29.44,21.36,46.51,18.34,29.45,46.12,61.68,84.92,98.51,38.37,35.87,73.16,62.35,103.39,78.7,38,20.8,67.53,25.38,78.9,12.25,6.48-6.15,8-17,4.53-31.49-3.24-13.36-10.63-29.44-21.37-46.51-18.34-29.45-46.11-61.67-84.91-98.51-38.37-35.87-73.16-62.35-103.39-78.7C271.18,225.55,250.79,218.89,236,218.89Z" transform="translate(-8.28 -10.28)"/><path class="cls-37" d="M483.05,498.7c-14.91,0-35.15-6.09-58.61-18-30.92-15.55-66.64-41.07-106.15-75.87-40.15-35.9-69-67.42-88.32-96.36-24.75-36.75-31.9-66.25-19.14-78.92,11.39-13.76,41.58-10.12,80.73,9.77,30.93,15.55,66.64,41.07,106.15,75.87h0c40.14,35.9,69,67.42,88.31,96.36,24.75,36.75,31.9,66.25,19.14,78.92C500.6,496,493,498.7,483.05,498.7ZM233,222.27c-9.67,0-17,2.62-21.41,7.95-6.36,6.31-7.61,17.24-3.65,31.65,3.65,13.31,11.56,29.22,22.88,46C250,336.77,278.87,368.23,319,404.07c39.45,34.74,75.09,60.22,105.94,75.72,38.7,19.68,68.44,23.41,79.54,10,6.36-6.32,7.61-17.25,3.65-31.66-3.65-13.31-11.56-29.22-22.88-46-19.24-28.88-48.08-60.33-88.15-96.17h0C357.6,281.19,322,255.71,291.11,240.21,267.76,228.34,247.67,222.27,233,222.27Z" transform="translate(-8.28 -10.28)"/><path class="cls-38" d="M486,495.41c-14.83,0-34.73-5.52-57.78-16.38-31.54-14.69-68.13-39.22-108.73-72.9-41.44-34.91-71.4-65.67-91.58-94-26.06-36.24-34.14-65.65-21.6-78.66,11.11-14.06,41.56-11.26,81.41,7.52,31.55,14.69,68.13,39.22,108.73,72.9h0c41.44,34.91,71.39,65.67,91.58,94,26.06,36.24,34.14,65.65,21.6,78.66C505,492.48,496.85,495.41,486,495.41ZM230,225.56c-10.5,0-18.36,2.82-22.89,8.55-6.24,6.48-7.19,17.49-2.77,31.85,4.08,13.26,12.53,29,24.44,45.57,20.13,28.28,50,59,91.4,93.84,40.54,33.62,77,58.1,108.52,72.76,39.4,18.57,69.39,21.47,80.23,7.76,6.24-6.48,7.19-17.49,2.77-31.85-4.08-13.26-12.53-29-24.44-45.57-20.13-28.28-50-59-91.4-93.84h0c-40.53-33.62-77-58.1-108.52-72.76C264.38,231.06,244.62,225.56,230,225.56Z" transform="translate(-8.28 -10.28)"/><path class="cls-39" d="M488.93,492.21c-14.75,0-34.27-5-56.85-14.8-32.17-13.86-69.63-37.39-111.33-70C278,373.52,247,343.53,225.89,315.76c-27.43-35.75-36.44-65.07-24.12-78.44,10.84-14.37,41.57-12.41,82.15,5.27,32.17,13.86,69.62,37.39,111.33,70h0C438,346.48,469,376.47,490.11,404.24c27.43,35.75,36.44,65.07,24.12,78.44C509.42,489.05,500.69,492.21,488.93,492.21ZM227.07,228.75c-11.43,0-19.88,3.05-24.53,9.21-11.82,12.83-2.56,42.39,24.14,77.19,21,27.7,52,57.64,94.69,91.52,41.63,32.5,79,56,111.11,69.82,40.13,17.49,70.41,19.56,81,5.55,11.82-12.83,2.56-42.39-24.14-77.19-21-27.71-52-57.64-94.69-91.52-41.63-32.51-79-56-111.11-69.82C261,233.71,241.63,228.75,227.07,228.75Z" transform="translate(-8.28 -10.28)"/><path class="cls-40" d="M491.74,489.11c-14.64,0-33.75-4.45-55.81-13.31-32.79-13-71.12-35.56-113.94-67-44.1-33-76.21-62.2-98.19-89.37C195,284.15,185,254.9,197.12,241.16c10.58-14.69,41.6-13.57,82.95,3,32.79,13,71.13,35.56,113.94,67h0c44.08,32.95,76.19,62.18,98.18,89.36C521,435.85,531,465.1,518.88,478.84,514,485.7,504.55,489.11,491.74,489.11ZM224.25,231.86c-12.47,0-21.58,3.29-26.35,9.92-11.61,13.18-1.38,42.67,26.68,77,21.92,27.1,54,56.28,98,89.19,42.75,31.41,81,53.92,113.72,66.9,40.9,16.43,71.48,17.68,81.8,3.35,11.61-13.18,1.38-42.67-26.68-77-21.93-27.11-54-56.29-98-89.19h0c-42.74-31.41-81-53.92-113.72-66.9C257.72,236.3,238.72,231.86,224.25,231.86Z" transform="translate(-8.28 -10.28)"/><path class="cls-41" d="M494.44,486.09c-14.51,0-33.17-4-54.64-11.88C406.38,462,367.16,440.47,323.22,410.1c-45.44-32-78.65-60.45-101.54-87-30.25-34.79-41.2-64-29.3-78.11,10.32-15,41.66-14.72,83.82.83,33.42,12.17,72.65,33.74,116.58,64.11h0c45.44,32,78.65,60.45,101.54,87,30.25,34.79,41.2,64,29.3,78.11C518.55,482.41,508.42,486.09,494.44,486.09ZM221.53,234.88c-13.62,0-23.45,3.55-28.35,10.69-11.42,13.54-.2,43,29.26,76.84,22.83,26.53,56,54.94,101.35,86.87,43.86,30.32,83,51.85,116.36,64,41.7,15.38,72.6,15.82,82.67,1.16,11.42-13.54.19-43-29.26-76.84-22.83-26.53-56-54.94-101.35-86.87-43.86-30.32-83-51.85-116.36-64C254.45,238.83,235.89,234.88,221.53,234.88Z" transform="translate(-8.28 -10.28)"/><path class="cls-42" d="M497,483.16c-14.34,0-32.5-3.49-53.31-10.51-34.05-11.34-74.17-31.94-119.25-61.22-46.82-31-81.14-58.72-104.92-84.7-31.72-34.32-43.68-63.47-32-78,10.06-15.36,41.75-15.89,84.75-1.39,34.05,11.34,74.17,31.94,119.25,61.22h0c46.82,31,81.13,58.71,104.92,84.69,31.72,34.32,43.68,63.47,32,78C523.26,479.19,512.3,483.16,497,483.16ZM219,237.8c-14.91,0-25.56,3.85-30.59,11.53-13.4,16.64,7.7,50.53,31.91,76.72C244,352,278.25,379.63,325,410.59c45,29.24,85.05,49.8,119,61.11,42.54,14.35,73.8,14,83.62-1C541,454,519.94,420.14,495.73,394,472,368,437.75,340.37,391,309.41c-45-29.24-85-49.8-119-61.11C251.23,241.3,233.15,237.8,219,237.8Z" transform="translate(-8.28 -10.28)"/><path class="cls-43" d="M499.43,480.33c-14.13,0-31.73-3.06-51.81-9.23-34.68-10.5-75.71-30.14-121.94-58.34-48.89-30.45-83.31-56.62-108.33-82.36-15.13-15.41-26.51-30.51-32.93-43.68-7.13-14.65-7.75-26.49-1.8-34.22,9.81-15.71,41.87-17.08,85.76-3.6,34.68,10.5,75.71,30.14,121.94,58.34h0c48.89,30.45,83.31,56.62,108.33,82.35,15.13,15.41,26.51,30.51,32.93,43.69,7.13,14.64,7.75,26.47,1.8,34.21C528.06,476,516.19,480.33,499.43,480.33ZM216.51,240.64c-16.35,0-27.91,4.17-33.06,12.43-13.18,17.11,9.25,50.8,34.62,76.63,25,25.68,59.32,51.8,108.14,82.21,46.15,28.16,87.1,47.75,121.71,58.24,43.42,13.33,75.06,12.12,84.63-3.22,13.18-17.11-9.25-50.8-34.62-76.63-25-25.68-59.32-51.8-108.14-82.21-46.15-28.16-87.1-47.75-121.7-58.24C248.05,243.7,230.52,240.64,216.51,240.64Z" transform="translate(-8.28 -10.28)"/><path class="cls-44" d="M501.68,477.58c-13.86,0-30.84-2.65-50.1-8-35.32-9.68-77.27-28.35-124.67-55.49-50.33-29.46-85.85-54.89-111.78-80-15.8-15.17-27.81-30.13-34.72-43.27-7.69-14.65-8.67-26.6-2.81-34.56,9.54-16.09,42-18.28,86.82-5.83,35.33,9.68,77.27,28.35,124.67,55.49h0c50.33,29.46,85.85,54.89,111.78,80,15.8,15.17,27.81,30.13,34.72,43.27,7.7,14.65,8.67,26.6,2.81,34.56C533,472.92,520.06,477.58,501.68,477.58ZM214.24,243.39c-18,0-30.53,4.51-35.81,13.41-5.64,7.67-4.64,19.26,2.87,33.54,6.86,13.05,18.8,27.93,34.53,43,25.87,25.07,61.32,50.44,111.58,79.86,47.33,27.1,89.19,45.74,124.43,55.39,44.36,12.33,76.4,10.3,85.73-5.41,5.64-7.67,4.64-19.25-2.87-33.54-6.85-13.05-18.79-27.93-34.53-43-25.87-25.07-61.33-50.45-111.58-79.86-47.32-27.1-89.19-45.73-124.43-55.39C244.92,246,228,243.39,214.24,243.39Z" transform="translate(-8.28 -10.28)"/><path class="cls-45" d="M503.75,474.92c-13.53,0-29.82-2.26-48.19-6.85-36.46-9-78.14-26.2-127.42-52.64-32.6-17.92-80-45.46-115.26-77.66-28.1-25.41-53.48-59.19-40.42-77.79,9.29-16.46,42.19-19.49,88-8.05,36.46,9,78.14,26.2,127.42,52.64h0c32.6,17.92,80,45.46,115.26,77.65,28.1,25.41,53.48,59.19,40.42,77.79C538,469.88,523.94,474.92,503.75,474.92ZM212.16,246.05c-19.76,0-33.45,4.89-38.85,14.47-5.55,7.9-4.19,19.6,3.88,33.9,7.37,13,19.94,27.76,36.37,42.61,35.17,32.13,82.51,59.63,115.06,77.52,49.2,26.4,90.8,43.59,127.18,52.55,45.33,11.32,77.81,8.47,86.89-7.62,5.55-7.9,4.19-19.6-3.89-33.9-7.36-13-19.93-27.76-36.36-42.61-35.16-32.12-82.51-59.62-115.06-77.52-49.19-26.4-90.8-43.59-127.18-52.55C241.85,248.32,225.6,246.05,212.16,246.05Z" transform="translate(-8.28 -10.28)"/><path class="cls-46" d="M505.58,472.35c-13.11,0-28.62-1.9-46-5.77-37.11-8.15-79.7-24.44-130.21-49.81-33.55-17.3-82.35-43.93-118.77-75.29-29.38-25.05-56.2-58.63-43.38-77.76,9-16.87,42.38-20.73,89.19-10.3,37.12,8.15,79.71,24.44,130.22,49.81h0c33.54,17.3,82.34,43.92,118.77,75.29,29.38,25.05,56.2,58.64,43.38,77.76C543.1,466.89,527.8,472.35,505.58,472.35ZM210.3,248.62c-21.76,0-36.71,5.3-42.23,15.61-5.45,8.14-3.73,20,4.94,34.28,7.88,13,21.1,27.6,38.24,42.21,36.34,31.3,85.08,57.88,118.58,75.16,50.42,25.32,92.94,41.59,130,49.72,46.35,10.33,79.3,6.65,88.13-9.83,5.45-8.14,3.73-20-4.94-34.28-7.88-13-21.1-27.6-38.24-42.21C468.4,348,419.67,321.4,386.18,304.12h0c-50.43-25.33-92.95-41.59-130-49.72C238.83,250.53,223.34,248.62,210.3,248.62Z" transform="translate(-8.28 -10.28)"/><path class="cls-47" d="M507.17,469.88c-12.6,0-27.25-1.57-43.52-4.78-37.77-7.32-81.29-22.69-133-47-37.42-18.08-85.13-42.7-122.32-72.91-17.95-14.43-31.91-29-40.38-42-9.51-14.66-11.6-27-6-35.71,8.76-17.27,42.61-22,90.5-12.55,37.76,7.32,81.28,22.69,133,47h0C422.82,320,470.54,344.6,507.72,374.8c17.95,14.43,31.91,29,40.38,42,9.51,14.67,11.6,27,6,35.72C548.36,464,531.64,469.88,507.17,469.88ZM208.7,251.1c-24,0-40.34,5.75-46,16.85-5.35,8.38-3.26,20.35,6,34.67,8.41,13,22.3,27.43,40.17,41.8C246,374.57,293.67,399.16,331,417.21c51.68,24.26,95.13,39.61,132.81,46.91,47.42,9.34,80.86,4.83,89.44-12.07,5.35-8.38,3.26-20.35-6-34.67-8.41-13-22.3-27.43-40.17-41.8C470,345.44,422.34,320.85,385,302.79c-51.68-24.26-95.13-39.61-132.81-46.91C235.88,252.67,221.25,251.1,208.7,251.1Z" transform="translate(-8.28 -10.28)"/><path class="cls-48" d="M508.47,467.5a243.48,243.48,0,0,1-40.72-3.86c-38.42-6.49-82.88-20.94-135.92-44.18-38.49-17.4-87.57-41.14-125.91-70.52-18.69-14.18-33.34-28.57-42.36-41.62-10.15-14.67-12.64-27.17-7.19-36.13,8.51-17.7,42.86-23.26,91.88-14.83,38.43,6.49,82.89,20.95,135.92,44.18h0c38.48,17.4,87.57,41.14,125.91,70.52,18.69,14.18,33.34,28.57,42.36,41.62,10.15,14.68,12.64,27.17,7.19,36.13C553.74,461.06,535.44,467.5,508.47,467.5Zm-301.08-214c-26.49,0-44.4,6.25-50.14,18.19-5.25,8.64-2.78,20.76,7.13,35.09,9,12.95,23.54,27.26,42.15,41.39,38.26,29.31,87.28,53,125.71,70.4,52.95,23.2,97.34,37.62,135.67,44.11,48.56,8.34,82.52,3,90.84-14.33,5.25-8.64,2.78-20.76-7.13-35.09-9-12.95-23.54-27.26-42.15-41.39-38.26-29.31-87.28-53-125.71-70.4-52.95-23.2-97.33-37.62-135.67-44.11A243.74,243.74,0,0,0,207.39,253.48Z" transform="translate(-8.28 -10.28)"/><path class="cls-49" d="M509.45,465.22a259.55,259.55,0,0,1-37.56-3c-39.06-5.68-84.48-19.21-138.83-41.38C293.49,404.1,243,381.25,203.53,352.7c-19.46-13.93-34.81-28.17-44.39-41.19-10.82-14.69-13.71-27.33-8.37-36.56,8.23-18.14,43.13-24.57,93.34-17.15,39.07,5.68,84.48,19.21,138.83,41.38h0C422.51,315.9,473,338.75,512.47,367.3c19.46,13.93,34.81,28.17,44.39,41.19,10.82,14.69,13.71,27.33,8.37,36.56C559.26,458.23,539.21,465.22,509.45,465.22Zm-303-209.46c-29.26,0-48.92,6.8-54.74,19.65-11.76,20.3,19.39,52.81,52.45,76.48,39.41,28.49,89.82,51.31,129.34,68C387.72,442,433.05,455.54,472,461.21c49.74,7.35,84.25,1.14,92.3-16.62,11.76-20.3-19.39-52.81-52.46-76.48-39.4-28.49-89.81-51.31-129.33-68C328.29,278,283,264.46,244,258.79A260,260,0,0,0,206.4,255.76Z" transform="translate(-8.28 -10.28)"/><path class="cls-50" d="M510.07,463.05a275.46,275.46,0,0,1-34-2.29c-39.71-4.85-86.09-17.48-141.79-38.58-43.2-17-92.8-38.15-133.19-65.69-20.24-13.68-36.31-27.77-46.48-40.76-11.5-14.7-14.82-27.5-9.58-37,7.94-18.6,43.42-25.9,94.88-19.48,39.71,4.85,86.09,17.48,141.79,38.58h0c43.21,17,92.81,38.15,133.18,65.68,20.25,13.68,36.32,27.77,46.49,40.76,11.5,14.7,14.81,27.5,9.58,37C564.92,455.44,542.92,463.05,510.07,463.05ZM205.78,257.94c-32.34,0-53.94,7.41-59.84,21.22-5.05,9.18-1.77,21.6,9.47,35.95C165.51,328,181.5,342,201.67,355.66c40.3,27.49,89.84,48.58,133,65.58,55.62,21.08,101.92,33.68,141.55,38.53,51,6.36,86.09-.72,93.86-18.93,5.05-9.18,1.77-21.59-9.47-36-10.1-12.9-26.1-26.92-46.26-40.54-40.29-27.48-89.83-48.57-133-65.58-55.62-21.08-101.92-33.68-141.55-38.53A276.3,276.3,0,0,0,205.78,257.94Z" transform="translate(-8.28 -10.28)"/><path class="cls-51" d="M510.28,461a294.55,294.55,0,0,1-30-1.64c-40.35-4-87.71-15.75-144.8-35.8-44.41-16.3-95.39-36.56-136.88-63.25-36.3-23.12-71-55.7-59.47-77.78,7.65-19.07,43.74-27.26,96.51-21.85,40.36,4,87.72,15.75,144.8,35.8h0c44.4,16.3,95.38,36.55,136.88,63.25,36.3,23.12,71,55.7,59.47,77.78C570.73,452.69,546.56,461,510.28,461ZM205.57,260c-35.76,0-59.53,8.07-65.49,22.92-11.22,21.52,23.17,53.63,59.1,76.52,41.4,26.64,92.33,46.87,136.68,63.15,57,20,104.29,31.71,144.56,35.75,52.3,5.35,88-2.6,95.5-21.28,11.22-21.52-23.17-53.63-59.1-76.52-41.41-26.64-92.33-46.87-136.68-63.15-57-20-104.28-31.71-144.56-35.75A295.8,295.8,0,0,0,205.57,260Z" transform="translate(-8.28 -10.28)"/><path class="cls-52" d="M510,459q-12,0-25.43-1.09c-41.55-3.28-88.53-13.77-147.85-33-47.94-16.34-98.14-35-140.62-60.79-21.87-13.14-39.44-26.91-50.81-39.84-13.13-14.93-17.22-27.69-12.15-37.94,7.34-19.57,44.07-28.66,98.21-24.27,41.55,3.28,88.53,13.77,147.85,33h0c47.92,16.33,98.13,35,140.61,60.78,21.87,13.14,39.44,26.91,50.81,39.84,13.13,14.93,17.22,27.69,12.15,37.94C576.7,450,550.12,459,510,459ZM205.82,262c-39.56,0-65.74,8.8-71.73,24.75-10.94,22.16,25.15,54.06,62.57,76.54C239.05,389,289.2,407.64,337.07,424c59.24,19.22,106.15,29.7,147.62,33,53.67,4.34,90-4.51,97.22-23.67,10.94-22.16-25.15-54.06-62.57-76.54C476.94,331,426.8,312.36,378.93,296c-59.24-19.22-106.15-29.7-147.62-33C222.31,262.33,213.79,262,205.82,262Z" transform="translate(-8.28 -10.28)"/><path class="cls-53" d="M509.12,457.16c-6.47,0-13.21-.21-20.17-.63-42.18-2.47-90.15-12.08-151-30.25C288.74,410.73,237.17,392.9,193.6,368c-39.33-22.27-77.48-54.41-66.56-77.79,3.77-10.76,15.64-18.53,35.28-23.06,17-3.92,39.42-5.19,64.73-3.66,42.18,2.47,90.15,12.08,151,30.25h0C427.26,309.27,478.83,327.1,522.4,352c39.33,22.27,77.48,54.41,66.56,77.79-3.77,10.76-15.64,18.53-35.28,23.06C541.33,455.71,526.17,457.16,509.12,457.16ZM206.58,263.83c-43.76,0-72.62,9.61-78.62,26.74-10.64,22.81,27.19,54.49,66.13,76.55,43.49,24.86,95,42.67,144.19,58.21C399,443.47,446.91,453.07,489,455.53c55.11,3.33,92.14-6.43,99-26.1,10.64-22.81-27.19-54.49-66.13-76.54-43.49-24.87-95-42.68-144.19-58.21C317,276.53,269.1,266.93,227,264.47,219.88,264,213.06,263.83,206.58,263.83Z" transform="translate(-8.28 -10.28)"/><path class="cls-54" d="M507.79,455.44q-7,0-14.44-.3c-42.79-1.66-91.77-10.39-154.13-27.48C288.63,412.9,235.66,395.92,191,371.87c-40.9-21.83-80.85-53.72-70.26-77.79,3.6-11.06,15.61-19.23,35.7-24.22,17.36-4.32,40.25-6.05,66.19-5,42.8,1.66,91.78,10.39,154.13,27.48h0c50.59,14.76,103.56,31.74,148.2,55.79,40.9,21.83,80.85,53.72,70.26,77.79-3.6,11.06-15.61,19.23-35.69,24.22C545.48,453.64,527.79,455.44,507.79,455.44ZM207.9,265.55c-48.41,0-80.23,10.51-86.2,28.89C111.36,317.92,151,349.37,191.5,371c44.55,24,97.46,41,148,55.71,62.27,17.06,111.17,25.78,153.89,27.44,56.63,2.3,94.35-8.39,100.91-28.58C604.64,402.08,565,370.63,524.5,349c-44.55-24-97.46-41-148-55.71-62.27-17.06-111.17-25.78-153.9-27.44Q215,265.54,207.9,265.55Z" transform="translate(-8.28 -10.28)"/><path class="cls-55" d="M505.93,453.84c-2.67,0-5.37,0-8.12-.08C454.42,452.9,404.42,445,340.46,429c-48.41-13-104.07-28.91-152-53.25C164,363.51,144,350.24,130.69,337.42c-15.49-14.92-21-28.17-16.35-39.4,3.41-11.38,15.57-19.95,36.13-25.43,17.7-4.72,41.11-6.92,67.72-6.35,43.4.86,93.4,8.72,157.35,24.72h0c48.4,13,104.06,28.91,152,53.25C552,356.49,572,369.76,585.31,382.58c15.49,14.92,21,28.17,16.35,39.4-3.41,11.38-15.57,19.95-36.12,25.43C549.66,451.64,529.18,453.84,505.93,453.84ZM209.83,267.15c-53.53,0-88.63,11.49-94.55,31.2-10,24.18,31.46,55.39,73.58,76.55,47.89,24.29,103.49,40.19,151.85,53.18,63.87,16,113.8,23.82,157.12,24.68C556,454,594.5,442.37,600.72,421.64c10-24.17-31.46-55.38-73.58-76.54-47.89-24.29-103.49-40.19-151.85-53.17-63.87-16-113.8-23.83-157.12-24.69C215.35,267.18,212.56,267.15,209.83,267.15Z" transform="translate(-8.28 -10.28)"/><path class="cls-56" d="M503.52,452.38h-1.19c-44.57-.07-94.12-6.84-160.63-21.95C292,418.19,234.83,403.16,185.76,379.74c-44.18-20.88-87.86-52.26-78-77.74,3.22-11.69,15.53-20.68,36.58-26.66,18.07-5.13,42-7.78,69.32-7.72,44.57.07,94.11,6.84,160.63,21.94h0c49.71,12.24,106.85,27.27,155.93,50.69,44.18,20.88,87.86,52.26,78,77.74-3.22,11.7-15.53,20.68-36.58,26.66C553.85,449.71,530.31,452.38,503.52,452.38ZM212.43,268.62c-59.16,0-97.89,12.57-103.71,33.7-9.64,24.88,33.7,55.83,77.47,76.52,49,23.38,106.07,38.39,155.74,50.62,66.43,15.09,115.9,21.85,160.4,21.92h1.23c59.17,0,97.9-12.57,103.72-33.7,9.64-24.88-33.7-55.83-77.47-76.52-49-23.38-106.07-38.39-155.73-50.62-66.44-15.09-115.92-21.85-160.42-21.92Z" transform="translate(-8.28 -10.28)"/><path class="cls-57" d="M499.83,451.06c-55.64,0-112.81-10.2-156.89-19.23-53.4-12-109.71-25.61-159.87-48.11-45.86-20.37-91.5-51.48-82-77.68,3-12,15.48-21.44,37-27.93,18.44-5.55,43-8.7,71-9.12,57.86-.92,118,9.76,164,19.18h0c53.39,12,109.71,25.61,159.86,48.1,45.87,20.38,91.5,51.49,82,77.69-3,12-15.48,21.44-37,27.93-18.44,5.55-43,8.7-71,9.12C504.56,451.05,502.2,451.06,499.83,451.06ZM216.17,269.94q-3.54,0-7.08.05c-61.57.91-101.6,14.5-107.08,36.34-9.27,25.61,36,56.29,81.47,76.48,50.07,22.46,106.33,36.05,159.67,48,45.9,9.41,106,20.09,163.76,19.16,61.57-.91,101.61-14.5,107.08-36.34,9.27-25.61-36-56.29-81.47-76.48-50.06-22.46-106.33-36.05-159.67-48C328.82,280.13,271.72,269.94,216.17,269.94Z" transform="translate(-8.28 -10.28)"/><path class="cls-58" d="M495,449.92c-30.71,0-75.73-2.93-150.79-16.69-57.1-11.65-112.59-23.9-163.83-45.49-47.6-19.85-95.23-50.66-86.16-77.61,2.79-12.37,15.42-22.22,37.52-29.24,18.84-6,44-9.62,72.71-10.53,30.74-1,77.55-.06,167.4,16.41h0c57.09,11.65,112.58,23.9,163.82,45.49,47.6,19.85,95.23,50.66,86.16,77.61-2.79,12.37-15.42,22.22-37.52,29.24-18.84,6-44,9.62-72.71,10.53C506.52,449.81,501,449.92,495,449.92ZM221,271.08c-6,0-11.52.11-16.57.28-63.38,2-104.24,16.61-109.31,39-8.86,26.35,38.4,56.74,85.59,76.42,51.15,21.55,106.59,33.79,163.63,45.43,89.74,16.45,136.48,17.41,167.17,16.39,63.38-2,104.25-16.61,109.31-39,8.86-26.35-38.4-56.74-85.59-76.42-51.15-21.55-106.59-33.79-163.62-45.43C296.66,274,251.69,271.08,221,271.08Z" transform="translate(-8.28 -10.28)"/><path class="cls-59" d="M491.4,448.87c-50.77,0-101.72-7-146-14.23-58.62-10.79-115.55-22.19-167.83-42.84-49.37-19.31-99-49.81-90.42-77.52,2.55-12.72,15.35-23,38-30.58,19.26-6.41,45-10.55,74.52-12,58.8-2.9,119.38,5.27,170.88,13.64h0c58.61,10.79,115.54,22.19,167.82,42.84,49.37,19.31,99.05,49.81,90.42,77.52-2.55,12.72-15.35,23-38,30.57-19.26,6.42-45,10.56-74.52,12Q503.9,448.88,491.4,448.87ZM224.59,272.13q-12.45,0-24.84.59c-65.26,3.15-107,18.77-111.62,41.81C79.7,341.63,129,371.73,178,390.87c52.2,20.61,109.08,32,167.64,42.79,51.44,8.35,112,16.51,170.66,13.62,65.26-3.15,107-18.78,111.62-41.81,8.43-27.1-40.88-57.2-89.82-76.34-52.2-20.61-109.08-32-167.63-42.79C326.21,279.16,275.29,272.13,224.59,272.13Z" transform="translate(-8.28 -10.28)"/><path class="cls-60" d="M486.29,448.06c-31.1,0-73.77-2.63-139.62-12-62.46-10.3-118.5-20.43-171.88-40.17C123.62,377.16,71.84,347,80,318.49c2.3-13.07,15.27-23.84,38.52-31.95,19.69-6.86,46.1-11.52,76.39-13.45,33.31-2.17,80.07-2.57,174.43,10.85h0c62.46,10.3,118.5,20.43,171.87,40.17,51.17,18.74,102.95,48.91,94.8,77.4-2.3,13.07-15.27,23.84-38.52,31.95-19.68,6.86-46.1,11.52-76.39,13.45C511,447.57,499.75,448.06,486.29,448.06ZM229.71,272.94c-13.44,0-24.7.49-34.75,1.14-67.21,4.3-109.83,21-114,44.64-8,27.88,43.42,57.65,94.17,76.23,53.3,19.71,109.29,29.83,171.69,40.12,94.25,13.41,141,13,174.22,10.85,67.21-4.3,109.83-21,114-44.64,8-27.88-43.43-57.65-94.17-76.23-53.29-19.71-109.28-29.83-171.68-40.12C303.39,275.57,260.76,272.94,229.71,272.94Z" transform="translate(-8.28 -10.28)"/><path class="cls-61" d="M480.32,447.29c-44.83,0-89.72-4.57-132.41-9.81-31.18-4.56-59.33-8.8-88.22-14.49-33.34-6.57-62-14.08-87.74-23-53-18.14-106.93-48-99.29-77.24,2-13.44,15.17-24.69,39-33.37,20.14-7.33,47.22-12.5,78.34-15,59.67-4.78,120.84,1.05,178.06,8.07h0c31.17,4.56,59.32,8.79,88.21,14.49,33.33,6.57,62,14.08,87.74,23,53,18.14,106.93,48,99.29,77.24-2,13.44-15.17,24.69-39,33.37-20.13,7.33-47.22,12.5-78.34,15C510.83,446.77,495.58,447.29,480.32,447.29ZM235.67,273.7c-15.22,0-30.44.53-45.56,1.75C120.86,280.92,77.31,298.69,73.63,323c-7.47,28.67,46.06,58.1,98.65,76.09,58.71,20.3,123.61,29.79,175.77,37.42,57.15,7,118.25,12.84,177.84,8.06,69.26-5.47,112.8-23.24,116.48-47.53,7.47-28.67-46.06-58.1-98.65-76.09C485,300.63,420.11,291.14,368,283.51,325.31,278.28,280.45,273.7,235.67,273.7Z" transform="translate(-8.28 -10.28)"/><path class="cls-62" d="M473.3,446.76c-43.53,0-86-3.89-124.14-7.85C292.81,431.69,229,423.5,169.08,404.19c-54.88-17.53-111-47-103.91-77.05,4.75-37.65,93-48.81,119.9-51.33,63.08-6,126.9-.41,181.77,5.28h0c56.34,7.22,120.2,15.41,180.07,34.72,54.88,17.53,111,47,103.91,77.05-4.76,37.65-93,48.81-119.9,51.33C511.7,446,492.39,446.76,473.3,446.76ZM242.69,274.24c-19.07,0-38.33.75-57.52,2.57-71.38,6.68-115.87,25.56-119,50.5-6.94,29.47,48.78,58.54,103.23,75.93,59.79,19.28,123.6,27.46,179.9,34.68,54.81,5.68,118.56,11.24,181.55,5.27,71.37-6.68,115.86-25.56,119-50.5,6.94-29.47-48.78-58.54-103.23-75.93C486.83,297.48,423,289.3,366.73,282.08,328.62,278.13,286.17,274.24,242.69,274.24Z" transform="translate(-8.28 -10.28)"/><path class="cls-63" d="M465.61,446.4c-39.36,0-78-2.89-115.19-6-60.64-6.71-123.32-13.65-184.25-32C134.43,399,106.51,387.1,87.55,375c-22.91-14.62-33-29.23-30-43.43,3.91-38.64,94.77-51.41,122.52-54.39,63.39-6.9,126.42-2.56,185.54,2.47h0c60.63,6.71,123.31,13.65,184.24,32,31.74,9.44,59.66,21.3,78.62,33.4,22.92,14.62,33,29.24,30,43.43-3.91,38.64-94.77,51.41-122.52,54.4A651,651,0,0,1,465.61,446.4ZM250.4,274.6a649,649,0,0,0-70.25,3.57c-73.58,7.92-119,27.94-121.65,53.55-6.36,30.29,51.6,59,108,75.72,60.84,18.28,123.48,25.21,184.06,31.91,59.06,5,122,9.37,185.33,2.48,73.58-7.92,119-27.95,121.64-53.55,6.37-30.29-51.58-59-108-75.72-60.84-18.27-123.48-25.21-184-31.91C328.37,277.49,289.71,274.6,250.4,274.6Z" transform="translate(-8.28 -10.28)"/><path class="cls-64" d="M456.91,446.15c-35.69,0-71.07-2.06-105.24-4.36l-2.28-.21c-61.05-5.72-124.18-11.63-186.17-28.93-32.77-9-61.71-20.65-81.48-32.65-23.95-14.54-34.73-29.32-32-43.91,1.11-14.59,14.77-27.34,40.59-37.85,27.3-11.11,61.08-16.85,84.62-19.7,63.58-7.78,128.43-4.43,189.41-.33l2.27.21c61,5.72,124.18,11.63,186.18,28.93,32.77,9,61.71,20.65,81.48,32.65,24,14.54,34.73,29.32,32,43.91-1.11,14.59-14.76,27.34-40.59,37.85-27.3,11.11-61.08,16.85-84.62,19.7A693.8,693.8,0,0,1,456.91,446.15ZM259.09,274.85a693.73,693.73,0,0,0-84,4.68c-23.48,2.85-57.17,8.57-84.36,19.63-25.45,10.36-38.9,22.83-40,37-5.75,31.11,54.49,59.37,112.79,75.47,61.91,17.28,125,23.19,186,28.9l2.26.21c60.92,4.1,125.71,7.45,189.21-.32,23.48-2.85,57.17-8.57,84.36-19.63,25.45-10.36,38.9-22.83,40-37,5.76-31.11-54.49-59.37-112.79-75.47-61.91-17.28-125-23.19-186-28.9l-2.25-.21C330.12,276.91,294.75,274.85,259.09,274.85Z" transform="translate(-8.28 -10.28)"/><path class="cls-65" d="M446.31,446.16c-32,0-63.63-1.44-93.38-2.92l-4.64-.35c-61.43-4.74-125-9.64-188-25.95-33.82-8.65-63.8-20-84.4-31.87-25-14.45-36.49-29.38-34.09-44.39.75-15,14.58-28.26,41.11-39.42,28-11.76,62.66-18.1,86.86-21.35,29.55-4,61.48-6,97.61-6.07,32.78-.07,65.26,1.4,95.74,2.92l4.65.36c61.43,4.73,125,9.63,188,25.94,33.82,8.65,63.8,20,84.4,31.87,25,14.45,36.49,29.38,34.09,44.39-.75,15-14.58,28.26-41.11,39.42-27.95,11.76-62.66,18.1-86.86,21.35-29.55,4-61.49,6-97.62,6.07ZM266.05,274.93c-46.68,0-72.66,2.78-96.2,6-24.13,3.24-58.75,9.56-86.61,21.29-26.14,11-39.76,24-40.5,38.6-5.1,31.93,57.48,59.77,117.75,75.18,63,16.29,126.49,21.18,187.88,25.92l4.63.36C467.78,448,509.86,444,546.15,439.1c24.13-3.24,58.75-9.56,86.61-21.28,26.14-11,39.76-24,40.5-38.61,5.1-31.94-57.48-59.77-117.75-75.18-63-16.29-126.48-21.18-187.86-25.92l-4.64-.36C322.69,275.75,291.33,274.93,266.05,274.93Z" transform="translate(-8.28 -10.28)"/><path class="cls-66" d="M432.9,446.39c-27.27,0-53.68-.87-78.7-1.69l-7-.42c-61.84-3.78-125.78-7.68-190-23-34.9-8.23-65.93-19.26-87.37-31-26.11-14.35-38.3-29.44-36.23-44.85C34,330,48,316.17,75.25,304.34c28.65-12.44,64.3-19.4,89.17-23,68.84-10.2,137.13-8,197.38-6h0l6.94.42c61.84,3.77,125.79,7.68,190,23,34.9,8.24,65.93,19.26,87.37,31,26.11,14.35,38.3,29.44,36.23,44.85-.36,15.38-14.37,29.2-41.62,41-28.64,12.44-64.3,19.4-89.17,23C511.33,444.67,471.27,446.39,432.9,446.39ZM283.11,274.61c-38.34,0-78.35,1.71-118.54,7.67-24.81,3.64-60.38,10.58-88.93,23-26.85,11.67-40.66,25.19-41,40.2-4.4,32.78,60.57,60.15,122.84,74.85,64.13,15.31,128,19.21,189.83,23l6.95.43c60.2,2,128.45,4.2,197.19-6,24.81-3.64,60.38-10.58,88.93-23,26.85-11.67,40.66-25.19,41-40.2,4.4-32.78-60.57-60.15-122.84-74.85-64.14-15.31-128-19.21-189.84-23l-6.94-.42C336.75,275.48,310.35,274.61,283.11,274.61Z" transform="translate(-8.28 -10.28)"/><path class="cls-67" d="M414.88,446.81c-19.62,0-39.06-.31-58.31-.62l-1.11,0-9.17-.42C284,442.93,219.57,440,154.18,425.65c-36-7.81-68.08-18.54-90.39-30.2C36.56,381.21,23.63,366,25.35,350.14c0-15.78,14.13-30.16,42.12-42.68,29.36-13.14,66-20.73,91.57-24.79,68.51-11,135.56-9.9,200.41-8.86l1.1,0,9.14.41C432,277.07,496.42,280,561.82,294.35c36,7.81,68.08,18.54,90.39,30.2,27.23,14.24,40.16,29.48,38.44,45.31,0,15.78-14.13,30.16-42.12,42.68-29.36,13.14-66,20.73-91.57,24.79C508.79,445.05,461.34,446.81,414.88,446.81ZM301.13,274.19c-46.43,0-93.83,1.75-141.93,9.47-25.51,4-62.06,11.62-91.32,24.71-27.6,12.35-41.57,26.42-41.53,41.83-3.66,33.62,63.75,60.51,128,74.48,65.32,14.34,129.69,17.26,192,20.08l10.25.43c64.79,1,131.79,2.12,200.21-8.85,25.51-4,62.06-11.62,91.32-24.71,27.6-12.35,41.57-26.42,41.53-41.83,3.66-33.62-63.74-60.51-128-74.48-65.32-14.34-129.7-17.26-192-20.08l-10.22-.43C340.18,274.5,320.74,274.19,301.13,274.19Z" transform="translate(-8.28 -10.28)"/><path class="cls-68" d="M370.24,447.65H356.73l-11.27-.34c-62.81-1.88-127.75-3.83-194.36-17.23-37.08-7.38-70.27-17.8-93.46-29.33C29.27,386.64,15.57,371.25,16.91,355c-.47-16.19,13.86-31.14,42.61-44.37,23.49-10.82,56.89-20.25,94-26.58C221.72,272.33,288,272.35,352,272.35h7.28l11.27.34c62.8,1.88,127.74,3.83,194.35,17.23,37.08,7.38,70.28,17.8,93.46,29.33,28.37,14.11,42.07,29.5,40.73,45.74.47,16.19-13.86,31.14-42.61,44.37-23.49,10.82-56.89,20.25-94,26.58C496.5,447.29,432.35,447.65,370.24,447.65Zm-24.48-174.3c-62.07,0-126.17.36-192,11.7-37.07,6.31-70.38,15.72-93.79,26.5-28.35,13.05-42.49,27.68-42,43.49-2.85,34.48,67,60.85,133.38,74,66.54,13.39,131.43,15.34,194.2,17.22l11.26.34H364c64,0,130.21,0,198.28-11.7,37.07-6.31,70.38-15.72,93.79-26.49,28.35-13,42.49-27.69,42-43.5,2.85-34.48-67-60.85-133.38-74-66.53-13.39-131.43-15.34-194.19-17.22l-11.26-.34h-13.5Z" transform="translate(-8.28 -10.28)"/><path class="cls-69" d="M358,449.13l-13.29-.2C281.37,448,215.86,447,148,434.54c-38.19-6.93-72.49-17-96.58-28.41-29.53-14-44-29.5-43.08-46.16-.94-16.6,13.55-32.13,43.08-46.1,24.09-11.39,58.39-21.48,96.58-28.41C215.85,273,281.36,272,344.71,271.07l13.28-.2h0l13.27.2C434.63,272,500.14,273,568,285.46c38.19,6.93,72.49,17,96.58,28.41,29.53,14,44,29.5,43.08,46.16.94,16.6-13.55,32.13-43.08,46.1-24.09,11.39-58.39,21.48-96.58,28.41C500.14,447,434.62,448,371.27,448.93Zm0-177.26-13.28.2C281.41,273,216,274,148.16,286.44,79.73,298.86,7.32,324.69,9.32,360c-2,35.34,70.41,61.17,138.84,73.59C216,446,281.42,447,344.74,447.93l13.27.2,13.24-.2C434.57,447,500,446,567.84,433.56c68.43-12.42,140.84-38.25,138.84-73.53,2-35.34-70.41-61.17-138.84-73.59C500,274,434.58,273,371.26,272.07Z" transform="translate(-8.28 -10.28)"/></svg>